<?xml version="1.0" encoding="utf-8"?>
<!-- Generator: Adobe Illustrator 24.0.1, SVG Export Plug-In . SVG Version: 6.00 Build 0)  -->
<svg version="1.1" id="Layer_2" xmlns="http://www.w3.org/2000/svg" xmlns:xlink="http://www.w3.org/1999/xlink" x="0px" y="0px"
	 viewBox="0 0 2353 2500" style="enable-background:new 0 0 2353 2500;" xml:space="preserve">
<style type="text/css">
	.st0{fill:#01579B;}
	.st1{fill:#40C4FF;}
	.st2{fill:#29B6F6;}
	.st3{opacity:0.2;fill:#FFFFFF;enable-background:new    ;}
	.st4{opacity:0.2;fill:#263238;enable-background:new    ;}
	.st5{opacity:0.2;fill:url(#SVGID_1_);enable-background:new    ;}
</style>
<g>
	<path class="st0" d="M479.9,1946.6L77.4,1544.1C29.7,1495.1,0,1425.9,0,1358.4c0-31.3,17.7-80.2,30.9-108.4l371.5-774L479.9,1946.6
		z"/>
	<path class="st1" d="M1857.6,553.4l-402.5-402.5c-35.2-35.3-108.4-77.4-170.3-77.4c-53.2,0-105.5,10.6-139.3,30.9L402.5,476
		L1857.6,553.4z"/>
	<polygon class="st1" points="959.8,2426.5 1935,2426.5 1935,2008.5 1207.5,1776.3 541.8,2008.5 	"/>
	<path class="st2" d="M402.5,1729.9c0,124.2,15.6,154.6,77.4,216.7l61.9,61.9H1935l-681.1-774L402.5,476V1729.9z"/>
	<path class="st0" d="M1640.9,476H402.5L1935,2008.5h418v-959.8l-495.4-495.4C1788,483.5,1726.3,476,1640.9,476z"/>
	<path class="st3" d="M495.4,1962.1c-61.9-62.2-77.4-123.4-77.4-232.2V491.5L402.5,476v1253.9
		C402.5,1838.7,402.5,1868.8,495.4,1962.1l46.4,46.4l0,0L495.4,1962.1z"/>
	<polygon class="st4" points="2337.5,1033.3 2337.5,1993.1 1919.5,1993.1 1935,2008.5 2353,2008.5 2353,1048.8 	"/>
	<path class="st3" d="M1857.6,553.4c-76.7-76.7-139.7-77.4-232.2-77.4H402.5l15.5,15.5h1207.5
		C1671.7,491.5,1788.2,483.7,1857.6,553.4L1857.6,553.4z"/>
	
		<radialGradient id="SVGID_1_" cx="1176.4777" cy="1247.8899" r="1176.4833" gradientTransform="matrix(1 0 0 -1 0 2497.8896)" gradientUnits="userSpaceOnUse">
		<stop  offset="0" style="stop-color:#FFFFFF;stop-opacity:0.1"/>
		<stop  offset="1" style="stop-color:#FFFFFF;stop-opacity:0"/>
	</radialGradient>
	<path class="st5" d="M2337.5,1033.3l-479.9-479.9l-402.5-402.5c-35.2-35.3-108.4-77.4-170.3-77.4c-53.2,0-105.5,10.6-139.3,30.9
		L402.5,476L30.9,1250C17.7,1278.1,0,1327.1,0,1358.4c0,67.6,29.7,136.7,77.4,185.8l370.9,368.2c8.9,10.8,19.3,21.9,31.6,34.2
		l15.5,15.5l46.4,46.4L944.3,2411l15.5,15.5h959.8h15.5v-418h418v-1.1v-958.7L2337.5,1033.3z"/>
</g>
</svg>
