<?xml version="1.0" encoding="utf-8"?>
<!-- Generator: Adobe Illustrator 24.0.1, SVG Export Plug-In . SVG Version: 6.00 Build 0)  -->
<svg version="1.1" id="Layer_2" xmlns="http://www.w3.org/2000/svg" xmlns:xlink="http://www.w3.org/1999/xlink" x="0px" y="0px"
	 viewBox="0 0 2353 2500" style="enable-background:new 0 0 2353 2500;" xml:space="preserve">
<style type="text/css">
	.st0{clip-path:url(#SVGID_2_);}
	.st1{fill:#54C5F8;}
	.st2{clip-path:url(#SVGID_4_);fill:#54C5F8;}
	.st3{clip-path:url(#SVGID_6_);fill:#01579B;}
	.st4{clip-path:url(#SVGID_8_);fill:url(#SVGID_9_);}
	.st5{clip-path:url(#SVGID_11_);}
	.st6{fill:#29B6F6;}
	.st7{fill:url(#SVGID_12_);}
</style>
<g>
	<g>
		<g>
			<g>
				<defs>
					<path id="SVGID_1_" d="M2178.4,1154.6l-667.9,667.9l667.9,668l0,0h-763.3l-286.3-286.3l0,0l-381.7-381.7l668-667.9
						L2178.4,1154.6L2178.4,1154.6L2178.4,1154.6z M1415.1,9.5L174.6,1250l381.7,381.7L2178.4,9.5H1415.1z"/>
				</defs>
				<clipPath id="SVGID_2_">
					<use xlink:href="#SVGID_1_"  style="overflow:visible;"/>
				</clipPath>
				<g class="st0">
					
						<image style="overflow:visible;opacity:0.2;enable-background:new    ;" width="125" height="97" xlink:href="AE78C301279FF5F.png"  transform="matrix(14.322 0 0 14.322 625.6801 1041.7103)">
					</image>
					<g>
						<polygon class="st1" points="2178.4,1154.6 2178.4,1154.6 2178.4,1154.6 1415.1,1154.6 747.2,1822.6 1128.8,2204.2 						"/>
					</g>
				</g>
			</g>
		</g>
		<g>
			<g>
				<defs>
					<path id="SVGID_3_" d="M2178.4,1154.6l-667.9,667.9l667.9,668l0,0h-763.3l-286.3-286.3l0,0l-381.7-381.7l668-667.9
						L2178.4,1154.6L2178.4,1154.6L2178.4,1154.6z M1415.1,9.5L174.6,1250l381.7,381.7L2178.4,9.5H1415.1z"/>
				</defs>
				<clipPath id="SVGID_4_">
					<use xlink:href="#SVGID_3_"  style="overflow:visible;"/>
				</clipPath>
				<polygon class="st2" points="556.3,1631.7 174.6,1250 1415.1,9.5 2178.4,9.5 				"/>
			</g>
		</g>
		<g>
			<g>
				<defs>
					<path id="SVGID_5_" d="M2178.4,1154.6l-667.9,667.9l667.9,668l0,0h-763.3l-286.3-286.3l0,0l-381.7-381.7l668-667.9
						L2178.4,1154.6L2178.4,1154.6L2178.4,1154.6z M1415.1,9.5L174.6,1250l381.7,381.7L2178.4,9.5H1415.1z"/>
				</defs>
				<clipPath id="SVGID_6_">
					<use xlink:href="#SVGID_5_"  style="overflow:visible;"/>
				</clipPath>
				<polygon class="st3" points="1128.8,2204.2 1415.1,2490.5 2178.4,2490.5 2178.4,2490.5 1510.5,1822.6 				"/>
			</g>
		</g>
		<g>
			<g>
				<defs>
					<path id="SVGID_7_" d="M2178.4,1154.6l-667.9,667.9l667.9,668l0,0h-763.3l-286.3-286.3l0,0l-381.7-381.7l668-667.9
						L2178.4,1154.6L2178.4,1154.6L2178.4,1154.6z M1415.1,9.5L174.6,1250l381.7,381.7L2178.4,9.5H1415.1z"/>
				</defs>
				<clipPath id="SVGID_8_">
					<use xlink:href="#SVGID_7_"  style="overflow:visible;"/>
				</clipPath>
				
					<linearGradient id="SVGID_9_" gradientUnits="userSpaceOnUse" x1="8557.4736" y1="7859.6279" x2="9694.626" y2="6722.4761" gradientTransform="matrix(0.25 0 0 0.25 -899.25 313.0276)">
					<stop  offset="0" style="stop-color:#1A237E;stop-opacity:0.4"/>
					<stop  offset="1" style="stop-color:#1A237E;stop-opacity:0"/>
				</linearGradient>
				<polygon class="st4" points="1128.8,2204.2 1694.9,2008.2 1510.5,1822.6 				"/>
			</g>
		</g>
		<g>
			<g>
				<defs>
					<path id="SVGID_10_" d="M2178.4,1154.6l-667.9,667.9l667.9,668l0,0h-763.3l-286.3-286.3l0,0l-381.7-381.7l668-667.9
						L2178.4,1154.6L2178.4,1154.6L2178.4,1154.6z M1415.1,9.5L174.6,1250l381.7,381.7L2178.4,9.5H1415.1z"/>
				</defs>
				<clipPath id="SVGID_11_">
					<use xlink:href="#SVGID_10_"  style="overflow:visible;"/>
				</clipPath>
				<g class="st5">
					
						<rect x="858.9" y="1552.6" transform="matrix(0.7071 -0.7071 0.7071 0.7071 -958.0999 1331.9755)" class="st6" width="539.7" height="539.7"/>
				</g>
			</g>
		</g>
	</g>
	
		<radialGradient id="SVGID_12_" cx="4520.9155" cy="-537.4402" r="12141.3594" gradientTransform="matrix(0.25 0 0 0.25 -899.25 313.0276)" gradientUnits="userSpaceOnUse">
		<stop  offset="0" style="stop-color:#FFFFFF;stop-opacity:0.1"/>
		<stop  offset="1" style="stop-color:#FFFFFF;stop-opacity:0"/>
	</radialGradient>
	<path class="st7" d="M2178.4,1154.6l-667.9,667.9l667.9,668l0,0h-763.3l-286.3-286.3l0,0l-381.7-381.7l668-667.9L2178.4,1154.6
		L2178.4,1154.6L2178.4,1154.6z M1415.1,9.5L174.6,1250l381.7,381.7L2178.4,9.5H1415.1z"/>
</g>
</svg>
