<?xml version="1.0" encoding="utf-8"?>
<!-- Generator: Adobe Illustrator 24.0.3, SVG Export Plug-In . SVG Version: 6.00 Build 0)  -->
<svg version="1.1" id="Layer_2" xmlns="http://www.w3.org/2000/svg" xmlns:xlink="http://www.w3.org/1999/xlink" x="0px" y="0px"
	 viewBox="0 0 153 60" style="enable-background:new 0 0 153 60;" xml:space="preserve">
<style type="text/css">
	.st0{fill:#3B3A3C;}
	.st1{fill:#9673B2;}
	.st2{fill:#704B9D;}
</style>
<g>
	<g>
		<path class="st0" d="M83.3,13.3h1.5l5.8,13.5h-1.5l-1.9-4.5H81l-2,4.5h-1.4L83.3,13.3z M81.5,21h5.2l-2.6-6.2L81.5,21z"/>
		<path class="st0" d="M92,16.8h1.3v1.3h0c0.4-0.6,1.4-1.5,3.1-1.5c1.2,0,2.2,0.3,3.1,1.2c0.7,0.7,1.2,1.9,1.2,3.5v5.5h-1.3v-5.5
			c0-1.3-0.4-2.2-0.9-2.7c-0.7-0.7-1.6-0.9-2.2-0.9c-0.6,0-1.5,0.2-2.2,0.9c-0.5,0.5-0.9,1.4-0.9,2.6v5.6H92V16.8z"/>
		<path class="st0" d="M113.2,26.8h-1.3V25h0c-1.1,1.6-2.8,2-3.9,2c-3.1,0-5.3-2.4-5.3-5.2c0-2.7,2.1-5.2,5.3-5.2
			c1.1,0,2.8,0.4,3.9,2h0v-5.2h1.3V26.8z M108,25.8c2.1,0,4-1.7,4-4.1c0-2.2-1.7-4.1-4-4.1c-2.2,0-4.1,1.6-4.1,4.1
			C103.9,24,105.6,25.8,108,25.8z"/>
		<path class="st0" d="M115.6,16.8h1.3v1.4h0c0.6-1.4,1.7-1.6,2.8-1.7v1.3c-0.9,0.1-1.7,0.4-2.1,1c-0.4,0.5-0.7,1.3-0.7,2.1v5.8
			h-1.3V16.8z"/>
		<path class="st0" d="M126.8,16.5c2.9,0,5.2,2.5,5.2,5.2c0,2.7-2.2,5.2-5.2,5.2c-2.9,0-5.2-2.5-5.2-5.1
			C121.7,18.7,124.2,16.5,126.8,16.5z M126.9,25.8c1.9,0,3.9-1.5,3.9-4.1c0-2.6-2.2-4-3.9-4c-1.8,0-3.9,1.5-3.9,4.1
			C122.9,24.1,124.8,25.8,126.9,25.8z"/>
		<path class="st0" d="M134,13.3h1.3v2.3H134V13.3z M134,16.8h1.3v10H134V16.8z"/>
		<path class="st0" d="M147.9,26.8h-1.3V25h0c-1.1,1.6-2.8,2-3.9,2c-3.1,0-5.3-2.4-5.3-5.2c0-2.7,2.1-5.2,5.3-5.2
			c1.1,0,2.8,0.4,3.9,2h0v-5.2h1.3V26.8z M142.7,25.8c2.1,0,4-1.7,4-4.1c0-2.2-1.7-4.1-4-4.1c-2.2,0-4.1,1.6-4.1,4.1
			C138.6,24,140.2,25.8,142.7,25.8z"/>
		<path class="st0" d="M83.3,30.2h1.5l5.8,13.5h-1.5l-1.9-4.5H81l-2,4.5h-1.4L83.3,30.2z M81.5,37.9h5.2l-2.6-6.2L81.5,37.9z"/>
		<path class="st0" d="M92,30.2h1.3v13.5H92V30.2z"/>
		<path class="st0" d="M95.7,30.2h1.3v13.5h-1.3V30.2z"/>
		<path class="st0" d="M99.3,30.2h1.3v2.3h-1.3V30.2z M99.3,33.7h1.3v10h-1.3V33.7z"/>
		<path class="st0" d="M113,43.6h-1.3v-1.7h0c-1.1,1.6-2.8,2-3.9,2c-3.1,0-5.3-2.4-5.3-5.2c0-2.7,2.1-5.2,5.3-5.2
			c1.1,0,2.8,0.3,3.9,2h0v-1.7h1.3V43.6z M107.9,42.7c2.1,0,4-1.7,4-4.1c0-2.2-1.7-4.1-4-4.1c-2.2,0-4.1,1.6-4.1,4.1
			C103.8,40.9,105.4,42.7,107.9,42.7z"/>
		<path class="st0" d="M115.4,33.7h1.3V35h0c0.4-0.6,1.4-1.5,3.1-1.5c1.2,0,2.2,0.3,3.1,1.2c0.7,0.7,1.2,1.9,1.2,3.5v5.5h-1.3v-5.5
			c0-1.3-0.4-2.2-0.9-2.7c-0.7-0.7-1.6-0.9-2.2-0.9c-0.6,0-1.5,0.2-2.2,0.9c-0.5,0.5-0.9,1.4-0.9,2.6v5.6h-1.3V33.7z"/>
		<path class="st0" d="M136.3,40.7c-0.6,1.2-2,3.2-4.9,3.2c-3.1,0-5.3-2.4-5.3-5.2c0-2.9,2.4-5.2,5.3-5.2c1.7,0,4,0.9,4.9,3.3h-1.4
			c-0.8-1.5-2.3-2.1-3.5-2.1c-1.9,0-4.1,1.5-4.1,4.1c0,2.2,1.7,4.1,4.1,4.1c2.1,0,3.1-1.3,3.5-2H136.3z"/>
		<path class="st0" d="M139,39.1c0.1,1.9,1.9,3.6,3.9,3.6c1.8,0,3.1-1.1,3.6-2.3h1.3c-0.7,2-2.6,3.5-4.9,3.5c-2.8,0-5.2-2.3-5.2-5.2
			c0-2.8,2.3-5.2,5.2-5.2c2.2,0,3.7,1.3,4.4,2.5c0.6,0.9,0.8,1.9,0.8,2.8c0,0.1,0,0.2,0,0.4H139z M146.8,38
			c-0.4-2.3-2.3-3.4-3.9-3.4c-1.6,0-3.5,1.1-3.9,3.4H146.8z"/>
	</g>
</g>
<polygon class="st1" points="73.9,56.4 73.9,12.6 26,38.4 "/>
<polygon class="st2" points="4.4,48.6 55.9,20.8 51.2,2.4 "/>
</svg>
