<?xml version="1.0" encoding="utf-8"?>
<!-- Generator: Adobe Illustrator 24.0.3, SVG Export Plug-In . SVG Version: 6.00 Build 0)  -->
<svg version="1.1" xmlns="http://www.w3.org/2000/svg" xmlns:xlink="http://www.w3.org/1999/xlink" x="0px" y="0px"
	 viewBox="0 0 153 60" style="enable-background:new 0 0 153 60;" xml:space="preserve">
<style type="text/css">
	.st0{display:none;}
	.st1{display:inline;}
	.st2{fill:#0957FF;}
	.st3{fill:url(#SVGID_1_);}
	.st4{opacity:0.8;}
	.st5{fill:#3B3A3C;}
	.st6{font-family:'AvantGarde-ExtraLight';}
	.st7{font-size:18.856px;}
	.st8{letter-spacing:1;}
	.st9{fill:#9673B2;}
	.st10{fill:#704B9D;}
</style>
<g id="Layer_2_1_" class="st0">
	<g id="Layer_2_2_" class="st1">
		<g id="Layer_1-2">
			<path class="st2" d="M5.6,23.7C6.5,23.2,7.4,23,8.3,23c0.8,0,1.6,0.2,2.3,0.5c0.4,0.2,0.8,0.5,1.1,0.8c0.6,0.6,1.5,0.6,2,0
				c0.2-0.2,0.4-0.5,0.4-0.8c0-0.4-0.1-0.9-0.4-1.2c-0.5-0.5-1-0.9-1.7-1.2c-1.2-0.6-2.5-0.9-3.8-0.9c-1.5,0-3,0.3-4.3,1
				c-1.2,0.7-2.3,1.7-3,2.9C0.4,25.4,0,26.9,0,28.3c0,1.5,0.4,2.9,1.1,4.2c0.7,1.2,1.7,2.2,3,2.9s2.8,1.1,4.3,1
				c1.3,0,2.6-0.3,3.8-0.9c0.6-0.3,1.2-0.7,1.7-1.2c0.3-0.3,0.4-0.7,0.4-1.2c-0.1-0.8-0.8-1.3-1.6-1.2c-0.3,0-0.6,0.2-0.8,0.4
				c-0.3,0.3-0.7,0.6-1.2,0.9c-0.7,0.4-1.5,0.6-2.3,0.5c-0.9,0-1.9-0.2-2.7-0.7c-0.8-0.4-1.4-1.1-1.9-1.9c-0.5-0.9-0.7-1.8-0.7-2.8
				s0.2-1.9,0.7-2.8C4.2,24.8,4.9,24.1,5.6,23.7z"/>
			<path class="st2" d="M49.9,14.2c-0.9,0-1.5,0.7-1.5,1.5l0,0v6.8c-0.6-0.7-1.3-1.2-2.1-1.6c-0.9-0.4-2-0.7-3-0.6
				c-1.4,0-2.8,0.3-4.1,1C38,22,37,23,36.4,24.1c-0.7,1.3-1.1,2.7-1.2,4.2c0,1.5,0.4,2.9,1.2,4.2c0.6,1.2,1.6,2.2,2.8,2.9
				s2.6,1,4.1,1c1.1,0,2.1-0.2,3.1-0.7c0.8-0.4,1.6-1,2.1-1.7v0.7c0,0.8,0.7,1.5,1.5,1.5s1.5-0.7,1.5-1.5v-19
				C51.5,14.9,50.8,14.2,49.9,14.2L49.9,14.2z M46,33c-0.7,0.4-1.6,0.7-2.5,0.7S41.7,33.5,41,33c-0.8-0.5-1.4-1.1-1.8-1.9
				c-0.5-0.9-0.7-1.8-0.7-2.8s0.2-1.9,0.7-2.8c0.4-0.8,1-1.4,1.8-1.9c0.8-0.4,1.7-0.7,2.6-0.7c0.9,0,1.7,0.2,2.5,0.7
				c0.8,0.4,1.4,1.1,1.8,1.9c0.4,0.9,0.7,1.8,0.7,2.8s-0.2,1.9-0.7,2.8C47.4,31.9,46.7,32.6,46,33L46,33z"/>
			<path class="st2" d="M65.3,21.3c-1.2-0.7-2.6-1.1-4-1c-1.4,0-2.8,0.3-4.1,1C56,22,55,23,54.3,24.2c-0.7,1.3-1,2.7-1,4.1
				c0,1.5,0.3,2.9,1.1,4.2c0.7,1.2,1.7,2.2,3,2.9c2.5,1.2,5.4,1.4,8,0.4c0.6-0.3,1.2-0.6,1.7-1c0.6-0.5,0.7-1.3,0.2-1.9l0,0
				c-0.5-0.5-1.3-0.6-1.8-0.2c-1,0.7-2.3,1.1-3.6,1.1c-1.4,0-2.7-0.4-3.7-1.2c-0.9-0.8-1.6-1.8-1.7-3l0,0h11.6c0.5,0,1-0.4,1-1l0,0
				c0-1.5-0.3-2.9-1-4.2C67.4,23,66.5,22,65.3,21.3z M66.2,27.1H66h-9.6l0,0c0.1-1.1,0.7-2.2,1.5-3c1.9-1.6,4.7-1.6,6.6,0
				c0.8,0.8,1.4,1.8,1.5,2.9L66.2,27.1L66.2,27.1z"/>
			<path class="st2" d="M90.5,20.3c-1.2,0-2.5,0.2-3.6,0.8c-0.9,0.4-1.8,1.1-2.4,2c-0.5-0.9-1.2-1.6-2.1-2c-1-0.5-2.1-0.8-3.3-0.7
				c-1.1,0-2.2,0.2-3.2,0.6c-0.8,0.4-1.5,0.9-2,1.6V22c0-0.8-0.7-1.5-1.5-1.5s-1.5,0.7-1.5,1.5v12.9c0,0.8,0.7,1.5,1.5,1.5h0.1
				c0.8,0,1.5-0.7,1.5-1.5v-6.7c0-1.6,0.4-2.9,1.2-3.7c0.8-0.9,1.9-1.3,3.3-1.3c1.2,0,2.2,0.4,2.9,1.1s1,1.8,1,3.3v7.3
				c0,0.8,0.7,1.5,1.5,1.5H84c0.8,0,1.5-0.7,1.5-1.5v-6.7c0-1.6,0.4-2.9,1.2-3.7s1.9-1.3,3.3-1.3c1.2,0,2.2,0.4,2.9,1.1
				c0.7,0.7,1,1.8,1,3.3v7.3c0,0.8,0.7,1.5,1.5,1.5h0.1c0.8,0,1.5-0.7,1.5-1.5v-7.6c0-2.3-0.6-4-1.8-5.2S92.4,20.3,90.5,20.3z"/>
			<path class="st2" d="M105.7,20.3c-1.2,0-2.4,0.2-3.6,0.5c-0.7,0.2-1.3,0.5-1.9,0.8c-0.6,0.4-0.8,1.3-0.4,1.9
				c0.4,0.5,1.1,0.8,1.7,0.5c0.4-0.2,0.8-0.4,1.2-0.5c0.9-0.3,1.8-0.4,2.7-0.4c1.3,0,2.3,0.3,3,0.9s1,1.5,1,2.7V27l0,0h-4.3
				c-2.2,0-3.8,0.4-4.8,1.3c-1,0.8-1.6,2.1-1.6,3.4c0,1.3,0.6,2.6,1.6,3.4c1.1,0.9,2.5,1.3,4.3,1.3c1.1,0,2.2-0.2,3.2-0.6
				c0.7-0.3,1.3-0.8,1.8-1.4v0.3c0,0.8,0.7,1.5,1.5,1.5s1.5-0.7,1.5-1.5l0,0v-8.1c0-2.1-0.6-3.7-1.8-4.8
				C109.6,20.8,107.9,20.3,105.7,20.3z M109.4,29.4v2c-0.3,0.8-0.9,1.5-1.6,1.9c-0.8,0.5-1.8,0.7-2.7,0.7c-1,0-1.9-0.2-2.4-0.6
				c-0.6-0.4-0.9-1.1-0.9-1.7c0-1.5,1.1-2.3,3.4-2.3L109.4,29.4C109.4,29.3,109.4,29.3,109.4,29.4z"/>
			<path class="st2" d="M129.1,20.4c-0.8,0-1.5,0.7-1.5,1.5l0,0v0.7c-0.6-0.7-1.4-1.3-2.2-1.6c-1-0.4-2.1-0.7-3.2-0.7
				c-1.4,0-2.7,0.3-4,1c-1.2,0.6-2.2,1.6-2.8,2.7c-0.7,1.2-1.1,2.6-1,4c0,1.4,0.3,2.8,1,4s1.6,2.1,2.8,2.7c1.2,0.7,2.6,1,4,1
				c1.1,0,2.1-0.2,3.1-0.6c0.8-0.3,1.6-0.9,2.2-1.6v0.9c0,1.7-0.4,3-1.3,3.8c-0.8,0.8-2.2,1.3-3.9,1.3c-1.1,0-2.2-0.2-3.3-0.5
				c-0.5-0.2-0.9-0.4-1.4-0.6c-0.7-0.4-1.5-0.2-1.9,0.5c-0.2,0.3-0.3,0.7-0.2,1.1c0.1,0.4,0.3,0.7,0.6,0.9c0.6,0.3,1.3,0.6,1.9,0.8
				c1.4,0.4,2.8,0.6,4.2,0.6c2.7,0,4.8-0.7,6.1-2c1.4-1.3,2.1-3.4,2.1-6.1V21.9C130.6,21.1,129.9,20.4,129.1,20.4L129.1,20.4z
				 M127.6,27.9c0,0.9-0.2,1.8-0.7,2.6c-0.4,0.7-1,1.4-1.8,1.8c-0.8,0.4-1.7,0.7-2.5,0.6c-0.9,0-1.8-0.2-2.6-0.6
				c-0.8-0.4-1.4-1-1.8-1.8c-0.5-0.8-0.7-1.7-0.7-2.6c0-1.5,0.5-2.7,1.4-3.6c1-0.9,2.1-1.4,3.6-1.4c1.3-0.1,2.6,0.4,3.5,1.4
				C127.1,25.3,127.6,26.6,127.6,27.9z"/>
			<path class="st2" d="M134.9,20.4c-0.9,0-1.5,0.7-1.5,1.5l0,0v12.7c0,0.9,0.7,1.5,1.5,1.5c0.9,0,1.5-0.7,1.5-1.5V22
				C136.4,21.1,135.8,20.4,134.9,20.4L134.9,20.4z"/>
			<path class="st2" d="M152.4,32.1c-0.6-0.4-1.3-0.3-1.8,0.2c-0.3,0.3-0.7,0.6-1.2,0.9c-0.7,0.4-1.5,0.6-2.3,0.5
				c-0.9,0-1.9-0.2-2.7-0.7c-0.8-0.4-1.4-1.1-1.9-1.9c-0.5-0.9-0.7-1.8-0.7-2.8s0.2-1.9,0.7-2.8c0.4-0.8,1.1-1.4,1.9-1.9
				c0.8-0.4,1.7-0.7,2.7-0.7c0.8,0,1.6,0.2,2.3,0.5c0.4,0.2,0.8,0.5,1.1,0.8c0.6,0.6,1.5,0.6,2,0c0.2-0.2,0.4-0.5,0.4-0.8
				c0.1-0.4-0.1-0.9-0.4-1.2c-0.5-0.5-1-0.9-1.7-1.2c-1.2-0.6-2.5-0.9-3.8-0.9c-1.5,0-3,0.3-4.3,1c-1.2,0.7-2.3,1.7-3,2.9
				c-0.7,1.3-1.1,2.7-1.1,4.2s0.4,2.9,1.1,4.2c0.7,1.2,1.7,2.2,3,2.9s2.8,1.1,4.3,1c1.3,0,2.6-0.3,3.8-0.9c0.6-0.3,1.2-0.7,1.7-1.2
				c0.3-0.3,0.4-0.7,0.4-1.2C153,32.7,152.7,32.3,152.4,32.1z"/>
			
				<linearGradient id="SVGID_1_" gradientUnits="userSpaceOnUse" x1="15.5795" y1="810.35" x2="33.9083" y2="810.35" gradientTransform="matrix(1 0 0 1 0 -782)">
				<stop  offset="0" style="stop-color:#EC0C43"/>
				<stop  offset="1" style="stop-color:#FBB03B"/>
			</linearGradient>
			<path class="st3" d="M33,26.9l-4.5-2.2c-0.1,0-0.1-0.1-0.1-0.1l-2.2-4.5c-0.4-0.8-1.3-1.1-2.1-0.7c-0.3,0.2-0.6,0.4-0.7,0.7
				l-2.2,4.5c0,0.1-0.1,0.1-0.1,0.1l-4.5,2.2c-0.8,0.4-1.1,1.3-0.7,2.1c0.2,0.3,0.4,0.6,0.7,0.7L21,32c0.1,0,0.1,0.1,0.1,0.1
				l2.2,4.5c0.4,0.8,1.4,1.1,2.1,0.7c0.3-0.2,0.6-0.4,0.7-0.7l2.2-4.5c0-0.1,0.1-0.1,0.1-0.1l4.5-2.2c0.8-0.4,1.1-1.3,0.7-2.1
				C33.6,27.3,33.3,27.1,33,26.9z M29.7,27.2L27.6,29c-0.4,0.4-0.7,0.9-0.8,1.4l-0.5,2.7c0,0.1-0.1,0.2-0.2,0.2c0,0-0.1,0-0.1-0.1
				l-2-2c-0.4-0.4-0.9-0.7-1.4-0.8l-2.7-0.5c-0.1,0-0.2-0.1-0.2-0.2c0,0,0-0.1,0.1-0.1l2.1-1.8c0.4-0.4,0.7-0.9,0.8-1.4l0.5-2.7
				c0-0.1,0.1-0.2,0.3-0.2c0,0,0.1,0,0.1,0.1l1.8,2.1c0.4,0.4,0.9,0.7,1.4,0.8l2.7,0.5C29.6,27,29.7,27.1,29.7,27.2
				C29.7,27.2,29.7,27.2,29.7,27.2z"/>
			<g class="st4">
				<path class="st2" d="M2.8,40h0.7v1.7c0.2-0.3,0.6-0.5,1-0.5c0.8,0,1.4,0.7,1.4,1.7s-0.6,1.7-1.4,1.7c-0.4,0-0.8-0.2-1-0.5v0.4
					H2.8V40z M4.4,43.9c0.6,0,0.9-0.4,0.9-1.1s-0.4-1.1-0.9-1.1c-0.3,0-0.6,0.2-0.8,0.4v1.3C3.7,43.8,4,43.9,4.4,43.9z"/>
				<path class="st2" d="M7,45.1c0.2,0,0.4-0.1,0.5-0.3l0.2-0.4l-1.3-3.3H7l0.9,2.4l0.9-2.4h0.8L8,44.9c-0.2,0.5-0.6,0.8-1.1,0.7
					c-0.1,0-0.3,0-0.4,0L6.6,45C6.8,45.1,6.9,45.2,7,45.1z"/>
				<path class="st2" d="M12.6,41.2v3.3h-0.8V40h0.8l2.3,3.2V40h0.8v4.4H15L12.6,41.2z"/>
				<path class="st2" d="M18,41.2c1,0,1.6,0.7,1.6,1.8v0.2h-2.5c0,0.5,0.5,0.9,1,0.9c0.3,0,0.7-0.1,0.9-0.4l0.3,0.5
					c-0.4,0.3-0.8,0.5-1.3,0.5c-0.9,0-1.7-0.7-1.7-1.7C16.3,41.9,17.1,41.2,18,41.2z M17.1,42.6h1.8c0-0.5-0.4-0.9-0.9-0.9l0,0
					C17.5,41.7,17.1,42.1,17.1,42.6z"/>
				<path class="st2" d="M19.8,41.2h0.7l0.9,2.4l0.9-2.4h0.8l-1.3,3.2h-0.7L19.8,41.2z"/>
				<path class="st2" d="M25.1,41.2c1,0,1.6,0.7,1.6,1.8v0.2h-2.5c0,0.5,0.5,0.9,1,0.9c0.3,0,0.7-0.1,0.9-0.4l0.3,0.5
					c-0.4,0.3-0.8,0.5-1.3,0.5c-0.9,0-1.7-0.7-1.7-1.7C23.4,41.9,24.2,41.2,25.1,41.2L25.1,41.2L25.1,41.2z M24.2,42.6H26
					c0-0.5-0.4-0.9-0.9-0.9l0,0C24.6,41.7,24.2,42.1,24.2,42.6z"/>
				<path class="st2" d="M27.4,41.2h0.7v0.5c0.2-0.3,0.6-0.5,1-0.5v0.7c-0.1,0-0.1,0-0.2,0c-0.3,0-0.6,0.2-0.8,0.4v2.2h-0.7V41.2z"
					/>
				<path class="st2" d="M31.1,41.2c0.5,0,0.9,0.2,1.2,0.6l-0.5,0.4c-0.2-0.2-0.4-0.4-0.7-0.4c-0.6,0-1,0.4-1,1.1s0.4,1.1,1,1.1
					c0.3,0,0.6-0.1,0.7-0.4l0.5,0.4c-0.3,0.4-0.8,0.6-1.2,0.6c-0.9,0-1.7-0.8-1.7-1.7C29.5,41.9,30.2,41.2,31.1,41.2L31.1,41.2z"/>
				<path class="st2" d="M32.8,42.9c0-0.9,0.8-1.6,1.7-1.6s1.6,0.8,1.6,1.7s-0.8,1.6-1.7,1.6s-1.6-0.7-1.7-1.6
					C32.8,42.9,32.8,42.9,32.8,42.9z M35.4,42.9c0-0.6-0.3-1.1-0.9-1.1s-0.9,0.5-0.9,1.1s0.3,1.1,0.9,1.1S35.4,43.4,35.4,42.9z"/>
				<path class="st2" d="M39.1,44c-0.2,0.3-0.6,0.5-1,0.5c-0.8,0-1.4-0.6-1.4-1.7c0-1.1,0.6-1.7,1.4-1.7c0.4,0,0.8,0.2,1,0.5V40h0.7
					v4.4h-0.7V44z M39.1,42.2c-0.2-0.3-0.5-0.4-0.8-0.4c-0.5,0-0.9,0.4-0.9,1.1s0.4,1.1,0.9,1.1c0.3,0,0.6-0.2,0.8-0.4V42.2z"/>
				<path class="st2" d="M42.1,41.2c1,0,1.6,0.7,1.6,1.8v0.2h-2.5c0,0.5,0.5,0.9,1,0.9c0.3,0,0.7-0.1,0.9-0.4l0.3,0.5
					c-0.4,0.3-0.8,0.5-1.3,0.5c-0.9,0-1.7-0.7-1.7-1.7C40.4,41.9,41.2,41.2,42.1,41.2L42.1,41.2L42.1,41.2z M41.2,42.6H43
					c0-0.5-0.4-0.9-0.9-0.9l0,0C41.6,41.7,41.2,42.1,41.2,42.6z"/>
			</g>
		</g>
	</g>
</g>
<g id="Layer_3">
	<g>
		<text transform="matrix(1 0 0 1 77.6719 27.1832)"><tspan x="0" y="0" class="st5 st6 st7">And</tspan><tspan x="37.8" y="0" class="st5 st6 st7 st8">r</tspan><tspan x="44.6" y="0" class="st5 st6 st7">o</tspan><tspan x="56.7" y="0" class="st5 st6 st7">i</tspan><tspan x="60.4" y="0" class="st5 st6 st7">d </tspan><tspan x="0" y="17.5" class="st5 st6 st7">Alliance</tspan></text>
	</g>
	<polygon class="st9" points="74.1,57.9 74.1,12.6 24.4,39.3 	"/>
	<polygon class="st10" points="2,49.8 55.4,21 50.5,1.9 	"/>
</g>
</svg>
